<svg width="128" height="128" xmlns="http://www.w3.org/2000/svg">

 <title/>
 <g>
  <title>background</title>
  <rect fill="none" id="canvas_background" height="402" width="582" y="-1" x="-1"/>
 </g>
 <g>
  <title>Layer 1</title>
  <circle fill="#a7aece" id="svg_1" r="60" cy="64" cx="64" class="cls-1"/>
  <circle opacity="0.3" fill="#ffffff" id="svg_2" r="48" cy="64" cx="64" class="cls-2"/>
  <path fill="#7f3838" id="svg_3" d="m40,22a10,10 0 0 0 -10,10l0,81.43a59.62,59.62 0 0 0 20,8.91l0,-90.34a10,10 0 0 0 -10,-10z" class="cls-3"/>
  <path fill="#bc5b57" id="svg_4" d="m107.85,85.85c0,-14.49 -9.1,-25 -21.9,-28.94l2,-3.31a0.59,0.59 0 0 0 -0.58,-0.9l-6,0.82a0.59,0.59 0 0 1 -0.54,-1l2.66,-3.2a0.59,0.59 0 0 0 -0.54,-1a100,100 0 0 0 -21.07,5.4a35,35 0 0 0 -21.73,32.13l0,3.22c0,15.48 -1.65,21.18 -6.36,26.76l0,0a59.94,59.94 0 0 0 72,-8.77l0,-0.16a94.24,94.24 0 0 0 2.06,-21.05z" class="cls-4"/>
  <path fill="#ffd8c9" id="svg_5" d="m88.74,93.46a6.31,6.31 0 0 1 -5,-7.63a6.55,6.55 0 0 1 7.58,-4.72l5.91,1a0.8,0.8 0 0 0 0.77,-1.11c-3.89,-7 -13.76,-12.64 -24,-12.64s-20.12,5.64 -24,12.64a0.8,0.8 0 0 0 0.83,1.18l5.91,-1a6.55,6.55 0 0 1 7.58,4.72a6.31,6.31 0 0 1 -5.05,7.63l-8.18,1.37a0.8,0.8 0 0 0 -0.53,1.23c3.23,5 10.2,8.42 23.44,8.42s20.21,-3.38 23.44,-8.42a0.8,0.8 0 0 0 -0.53,-1.23l-8.17,-1.44z" class="cls-5"/>
  <path stroke-width="3px" stroke-linejoin="round" stroke="#393c54" stroke-linecap="round" fill="none" id="svg_6" d="m81.89,92.19a9,9 0 0 1 -2.77,2.21a11.61,11.61 0 0 1 -10.24,0" class="cls-6"/>
  <path fill="#393c54" id="svg_7" d="m79.12,86.62c0,2.83 -2.29,4.25 -5.12,4.25s-5.12,-1.42 -5.12,-4.25c0,-1.62 10.24,-1.87 10.24,0z" class="cls-7"/>
  <path fill="#393c54" id="svg_8" d="m57.33,87.48l3.05,-0.73a0.71,0.71 0 0 1 0.89,0.68a4,4 0 0 1 -4.28,4a3.9,3.9 0 0 1 -3,-1.84a3.94,3.94 0 0 1 5.53,-5.37a0.73,0.73 0 0 1 0.08,1.11l-2.27,2.15z" class="cls-7"/>
  <path fill="#393c54" id="svg_9" d="m90.4,87.48l3,-0.73a0.72,0.72 0 0 1 0.89,0.68a4,4 0 0 1 -4.29,4a3.88,3.88 0 0 1 -3,-1.84a3.94,3.94 0 0 1 5.52,-5.37a0.72,0.72 0 0 1 0.09,1.11l-2.21,2.15z" class="cls-7"/>
  <path fill="#393c54" id="svg_10" d="m92,29l-76.72,0a59.76,59.76 0 0 0 -8.19,16l84.91,0a8,8 0 0 0 0,-16z" class="cls-7"/>
  <circle fill="#515570" id="svg_11" r="8" cy="37" cx="92" class="cls-8"/>
  <circle opacity="0.1" stroke-width="2px" stroke-miterlimit="10" stroke="#ffffff" stroke-linecap="round" fill="none" id="svg_12" r="4.31" cy="37" cx="92" class="cls-9"/>
  <line stroke-width="6px" stroke-linejoin="round" stroke="#393c54" stroke-linecap="round" fill="none" id="svg_13" y2="49.5" y1="42" x2="20.5" x1="13" class="cls-10"/>
  <line stroke-width="6px" stroke-linejoin="round" stroke="#393c54" stroke-linecap="round" fill="none" id="svg_14" y2="23.72" y1="32.1" x2="74.38" x1="66" class="cls-10"/>
 </g>
</svg>