<?xml version="1.0" ?><svg style="enable-background:new 0 0 48 48;" version="1.1" viewBox="0 0 48 48" xml:space="preserve" xmlns="http://www.w3.org/2000/svg" xmlns:xlink="http://www.w3.org/1999/xlink"><g id="Padding__x26__Artboard"/><g id="Icons"><g><polygon points="34.76833,13.18919 29.20833,31.39915 24.1783,34.80919 22.6083,26.62919     30.95833,16.99919 21.41829,25.36918 17.12831,24.54918 13.78829,23.90916 13.22829,23.79918 13.37831,23.5692 16.55831,18.74919     34.4883,13.27916   " style="fill:#FFFFFF;"/><path d="M34.76833,13.18919l-5.56,18.20996l-5.03003,3.41004l-1.57001-8.17999l8.35004-9.63l-9.54004,8.37    l-4.28998-0.82001l-3.34003-0.64001l-0.40997-0.33997c0.70001,0,1.41998-0.19,2.07001-0.44    c0.60999-0.23999,1.19-0.56,1.70001-0.96002c0.48999-0.39996,0.78998-0.95001,1.13-1.45996    c0.23999-0.36005,0.46997-0.71002,0.70996-1.07001c0,0,14.26001-4.10004,15.44-6.23004c0.03003-0.03998,0.04999-0.08997,0.06-0.13    L34.76833,13.18919z" style="fill:#B9D4F8;"/><path d="M34.76833,13.18919l-5.56,18.20996l-3.5,2.37006c-0.04004-0.10004-0.07001-0.15002-0.07001-0.15002    c-0.17025-0.78871-0.34051-1.57742-0.51076-2.36612c-0.29033-1.34498-0.74125-2.75755-0.7603-4.13712    c-0.00138-0.09956-0.00055-0.19976,0.01716-0.29775c0.1441-0.79721,0.89884-1.63953,1.34789-2.2962    c0.70804-1.03543,1.41609-2.07087,2.12414-3.1063c0.87948-1.28613,1.67869-2.75053,2.69185-3.93652l0.41003-0.47998    l-0.33002,0.28998l3.96002-4.04999L34.76833,13.18919z" style="fill:#659BDB;"/><polyline points="    29.20577,31.39837 34.77171,13.18629 16.55689,18.74949 13.23207,23.79638 21.41509,25.36696 21.41509,25.36882     30.95867,16.99933 22.61112,26.63069 24.18171,34.81371 29.20577,31.39837   " style="fill:none;stroke:#1B4A9A;stroke-width:0.7;stroke-linecap:round;stroke-linejoin:round;stroke-miterlimit:10;"/><line style="fill:none;stroke:#1B4A9A;stroke-width:0.7;stroke-linecap:round;stroke-linejoin:round;stroke-miterlimit:10;" x1="24.47603" x2="26.14553" y1="17.99184" y2="17.47815"/><line style="fill:none;stroke:#1B4A9A;stroke-width:0.7;stroke-linecap:round;stroke-linejoin:round;stroke-miterlimit:10;" x1="19.13599" x2="23.30873" y1="19.63493" y2="18.35101"/></g></g></svg>